<svg width="137" height="44" viewBox="0 0 137 44" fill="none" xmlns="http://www.w3.org/2000/svg">
<path d="M36.7041 6.2985C33.6974 3.29134 29.8665 1.24331 25.6958 0.413413C21.5251 -0.416488 17.202 0.00905783 13.2732 1.63622C9.34436 3.26339 5.98629 6.01915 3.62367 9.55483C1.26105 13.0906 0 17.2475 0 21.5C0 25.7525 1.26105 29.9094 3.62367 33.4452C5.98629 36.9809 9.34436 39.7366 13.2732 41.3638C17.202 42.9909 21.5251 43.4165 25.6958 42.5866C29.8665 41.7567 33.6974 39.7087 36.7041 36.7015C40.7354 32.6696 43 27.2015 43 21.5C43 15.7985 40.7354 10.3304 36.7041 6.2985ZM5.60728 14.2242C6.69065 11.8212 8.29593 9.6899 10.3065 7.98525C12.317 6.28061 14.6821 5.04543 17.2299 4.36964C19.7777 3.69385 22.4441 3.59442 25.0351 4.07855C27.6262 4.56268 30.0767 5.61818 32.2087 7.16833C26.9314 6.66991 20.325 9.36717 14.9696 14.7128C12.9484 16.7308 11.236 19.0359 9.88778 21.5538C8.05406 19.3721 6.60641 16.8932 5.60728 14.2242ZM17.4616 39.1642C13.3809 38.0708 9.82374 35.5584 7.42894 32.0781C5.03415 28.5978 3.95861 24.3778 4.39552 20.1758C6.61386 24.9938 12.2137 29.3719 19.5628 31.3265C22.3063 32.0707 25.1458 32.4001 27.9869 32.3038C27.0213 34.9747 25.6103 37.4628 23.8139 39.6626C21.6826 39.8782 19.5298 39.7027 17.4616 39.1447V39.1642ZM30.8405 18.7294C30.1161 15.9735 28.9899 13.3392 27.4982 10.9113C30.2924 10.4138 33.1508 10.394 35.9516 10.8526C37.2053 12.5882 38.1295 14.5393 38.6782 16.6087C39.7734 20.6901 39.3773 25.0282 37.5609 28.8436C35.7445 32.659 32.6271 35.7015 28.7687 37.4247C31.8178 33.1149 32.795 26.0492 30.8405 18.7294Z" fill="url(#paint0_linear_10_2)"/>
<path d="M63.4111 15H61.5068V12.4219H54.8125V15H52.9082V9.74854C52.9082 8.98193 53.04 8.27637 53.3037 7.63184C53.5674 6.9873 53.9336 6.43311 54.4023 5.96924C54.8711 5.50537 55.4253 5.14404 56.0649 4.88525C56.7046 4.62646 57.4028 4.49707 58.1597 4.49707H62.4517C62.5835 4.49707 62.708 4.52148 62.8252 4.57031C62.9424 4.61914 63.0449 4.6875 63.1328 4.77539C63.2207 4.86328 63.2891 4.96582 63.3379 5.08301C63.3867 5.2002 63.4111 5.32471 63.4111 5.45654V15ZM54.8125 10.5176H61.5068V6.40137H58.1597C58.1011 6.40137 57.9766 6.41113 57.7861 6.43066C57.6006 6.44531 57.3833 6.48682 57.1343 6.55518C56.8901 6.62354 56.6313 6.72852 56.3579 6.87012C56.0845 7.01172 55.833 7.20703 55.6035 7.45605C55.374 7.70508 55.1836 8.01758 55.0322 8.39355C54.8857 8.76465 54.8125 9.21631 54.8125 9.74854V10.5176ZM76.126 8.02734C76.126 8.46191 76.0723 8.8501 75.9648 9.19189C75.8574 9.53369 75.7109 9.83643 75.5254 10.1001C75.3447 10.3589 75.1348 10.5811 74.8955 10.7666C74.6562 10.9521 74.4048 11.106 74.1411 11.228C73.8823 11.3452 73.6187 11.4307 73.3501 11.4844C73.0864 11.5381 72.8374 11.5649 72.603 11.5649L76.5801 15H73.6357L69.666 11.5649H68.2964V9.66064H72.603C72.8423 9.64111 73.0596 9.59229 73.2549 9.51416C73.4551 9.43115 73.626 9.32129 73.7676 9.18457C73.9141 9.04785 74.0264 8.88428 74.1045 8.69385C74.1826 8.49854 74.2217 8.27637 74.2217 8.02734V6.82617C74.2217 6.71875 74.207 6.63818 74.1777 6.58447C74.1533 6.52588 74.1191 6.48437 74.0752 6.45996C74.0361 6.43066 73.9922 6.41357 73.9434 6.40869C73.8994 6.40381 73.8579 6.40137 73.8188 6.40137H67.5347V15H65.6304V5.45654C65.6304 5.32471 65.6548 5.2002 65.7036 5.08301C65.7524 4.96582 65.8184 4.86328 65.9014 4.77539C65.9893 4.6875 66.0918 4.61914 66.209 4.57031C66.3262 4.52148 66.4531 4.49707 66.5898 4.49707H73.8188C74.2437 4.49707 74.6025 4.5752 74.8955 4.73145C75.1885 4.88281 75.4253 5.07568 75.606 5.31006C75.7915 5.53955 75.9233 5.78857 76.0015 6.05713C76.0845 6.32568 76.126 6.57715 76.126 6.81152V8.02734ZM87.4419 6.40137H83.2451V15H81.3408V6.40137H77.1367V4.49707H87.4419V6.40137ZM99.4463 4.49707L94.4731 14.6265C94.395 14.7827 94.2778 14.9072 94.1216 15C93.9702 15.0977 93.8018 15.1465 93.6162 15.1465C93.4355 15.1465 93.2671 15.0977 93.1108 15C92.9595 14.9072 92.8423 14.7827 92.7593 14.6265L87.7935 4.49707H89.9248L93.6162 12.063L97.3223 4.49707H99.4463ZM102.442 15H100.538V4.49707H102.442V15ZM114.314 15H105.628C105.491 15 105.364 14.9756 105.247 14.9268C105.13 14.8779 105.027 14.812 104.939 14.729C104.856 14.6411 104.791 14.5386 104.742 14.4214C104.693 14.3042 104.668 14.1772 104.668 14.0405V4.49707H106.573V13.0957H114.314V15ZM125.359 15H116.673C116.536 15 116.409 14.9756 116.292 14.9268C116.175 14.8779 116.072 14.812 115.984 14.729C115.901 14.6411 115.835 14.5386 115.787 14.4214C115.738 14.3042 115.713 14.1772 115.713 14.0405V4.49707H117.618V13.0957H125.359V15ZM135.35 10.708H129.336V8.78906H135.35V10.708ZM136.207 15H129.336C129.073 15 128.785 14.9536 128.472 14.8608C128.16 14.7681 127.869 14.6167 127.601 14.4067C127.337 14.1919 127.115 13.916 126.934 13.5791C126.758 13.2373 126.67 12.8198 126.67 12.3267V5.45654C126.67 5.32471 126.695 5.2002 126.744 5.08301C126.792 4.96582 126.858 4.86328 126.941 4.77539C127.029 4.6875 127.132 4.61914 127.249 4.57031C127.366 4.52148 127.493 4.49707 127.63 4.49707H136.207V6.40137H128.575V12.3267C128.575 12.5757 128.641 12.7661 128.772 12.8979C128.904 13.0298 129.097 13.0957 129.351 13.0957H136.207V15ZM63.4697 39.0405C63.4697 39.1772 63.4453 39.3042 63.3965 39.4214C63.3477 39.5386 63.2793 39.6411 63.1914 39.729C63.1084 39.812 63.0083 39.8779 62.8911 39.9268C62.7739 39.9756 62.647 40 62.5103 40H55.6401C55.4644 40 55.2739 39.9805 55.0688 39.9414C54.8687 39.8975 54.6685 39.8315 54.4683 39.7437C54.2729 39.6558 54.085 39.5435 53.9043 39.4067C53.7236 39.2651 53.5625 39.0967 53.4209 38.9014C53.2842 38.7012 53.1743 38.4717 53.0913 38.2129C53.0083 37.9492 52.9668 37.6538 52.9668 37.3267V32.1704C52.9668 31.9946 52.9863 31.8066 53.0254 31.6064C53.0693 31.4014 53.1353 31.2012 53.2231 31.0059C53.311 30.8057 53.4258 30.6152 53.5674 30.4346C53.709 30.2539 53.8774 30.0952 54.0728 29.9585C54.2729 29.8169 54.5024 29.7046 54.7612 29.6216C55.02 29.5386 55.313 29.4971 55.6401 29.4971H63.3818V31.4014H55.6401C55.3911 31.4014 55.2007 31.4673 55.0688 31.5991C54.937 31.731 54.8711 31.9263 54.8711 32.1851V37.3267C54.8711 37.5708 54.937 37.7612 55.0688 37.8979C55.2056 38.0298 55.396 38.0957 55.6401 38.0957H61.5654V35.708H56.4971V33.7891H62.5103C62.647 33.7891 62.7739 33.8159 62.8911 33.8696C63.0083 33.9185 63.1084 33.9868 63.1914 34.0747C63.2793 34.1626 63.3477 34.2651 63.3965 34.3823C63.4453 34.4946 63.4697 34.6167 63.4697 34.7485V39.0405ZM75.7598 40H73.8555V37.4219H67.1611V40H65.2568V34.7485C65.2568 33.9819 65.3887 33.2764 65.6523 32.6318C65.916 31.9873 66.2822 31.4331 66.751 30.9692C67.2197 30.5054 67.7739 30.144 68.4136 29.8853C69.0532 29.6265 69.7515 29.4971 70.5083 29.4971H74.8003C74.9321 29.4971 75.0566 29.5215 75.1738 29.5703C75.291 29.6191 75.3936 29.6875 75.4814 29.7754C75.5693 29.8633 75.6377 29.9658 75.6865 30.083C75.7354 30.2002 75.7598 30.3247 75.7598 30.4565V40ZM67.1611 35.5176H73.8555V31.4014H70.5083C70.4497 31.4014 70.3252 31.4111 70.1348 31.4307C69.9492 31.4453 69.7319 31.4868 69.4829 31.5552C69.2388 31.6235 68.98 31.7285 68.7065 31.8701C68.4331 32.0117 68.1816 32.207 67.9521 32.4561C67.7227 32.7051 67.5322 33.0176 67.3809 33.3936C67.2344 33.7646 67.1611 34.2163 67.1611 34.7485V35.5176ZM87.625 40H78.9385C78.8018 40 78.6748 39.9756 78.5576 39.9268C78.4404 39.8779 78.3379 39.812 78.25 39.729C78.167 39.6411 78.1011 39.5386 78.0522 39.4214C78.0034 39.3042 77.979 39.1772 77.979 39.0405V29.4971H79.8833V38.0957H87.625V40ZM98.6699 40H89.9834C89.8467 40 89.7197 39.9756 89.6025 39.9268C89.4854 39.8779 89.3828 39.812 89.2949 39.729C89.2119 39.6411 89.146 39.5386 89.0972 39.4214C89.0483 39.3042 89.0239 39.1772 89.0239 39.0405V29.4971H90.9282V38.0957H98.6699V40ZM108.66 35.708H102.647V33.7891H108.66V35.708ZM109.517 40H102.647C102.383 40 102.095 39.9536 101.783 39.8608C101.47 39.7681 101.18 39.6167 100.911 39.4067C100.647 39.1919 100.425 38.916 100.245 38.5791C100.069 38.2373 99.981 37.8198 99.981 37.3267V30.4565C99.981 30.3247 100.005 30.2002 100.054 30.083C100.103 29.9658 100.169 29.8633 100.252 29.7754C100.34 29.6875 100.442 29.6191 100.56 29.5703C100.677 29.5215 100.804 29.4971 100.94 29.4971H109.517V31.4014H101.885V37.3267C101.885 37.5757 101.951 37.7661 102.083 37.8979C102.215 38.0298 102.408 38.0957 102.662 38.0957H109.517V40ZM121.858 33.0273C121.858 33.4619 121.805 33.8501 121.697 34.1919C121.59 34.5337 121.443 34.8364 121.258 35.1001C121.077 35.3589 120.867 35.5811 120.628 35.7666C120.389 35.9521 120.137 36.106 119.874 36.228C119.615 36.3452 119.351 36.4307 119.083 36.4844C118.819 36.5381 118.57 36.5649 118.335 36.5649L122.312 40H119.368L115.398 36.5649H114.029V34.6606H118.335C118.575 34.6411 118.792 34.5923 118.987 34.5142C119.188 34.4312 119.358 34.3213 119.5 34.1846C119.646 34.0479 119.759 33.8843 119.837 33.6938C119.915 33.4985 119.954 33.2764 119.954 33.0273V31.8262C119.954 31.7188 119.939 31.6382 119.91 31.5845C119.886 31.5259 119.852 31.4844 119.808 31.46C119.769 31.4307 119.725 31.4136 119.676 31.4087C119.632 31.4038 119.59 31.4014 119.551 31.4014H113.267V40H111.363V30.4565C111.363 30.3247 111.387 30.2002 111.436 30.083C111.485 29.9658 111.551 29.8633 111.634 29.7754C111.722 29.6875 111.824 29.6191 111.941 29.5703C112.059 29.5215 112.186 29.4971 112.322 29.4971H119.551C119.976 29.4971 120.335 29.5752 120.628 29.7314C120.921 29.8828 121.158 30.0757 121.338 30.3101C121.524 30.5396 121.656 30.7886 121.734 31.0571C121.817 31.3257 121.858 31.5771 121.858 31.8115V33.0273ZM133.775 33.0127C133.775 33.4473 133.719 33.8354 133.606 34.1772C133.499 34.519 133.355 34.8218 133.174 35.0854C132.994 35.3442 132.781 35.5664 132.537 35.752C132.298 35.9375 132.049 36.0913 131.79 36.2134C131.531 36.3306 131.268 36.416 130.999 36.4697C130.735 36.5234 130.486 36.5503 130.252 36.5503H129.483V40H127.564V36.5503H126.802C126.568 36.5503 126.316 36.5234 126.048 36.4697C125.784 36.416 125.521 36.3306 125.257 36.2134C124.998 36.0913 124.749 35.9375 124.51 35.752C124.271 35.5664 124.058 35.3442 123.873 35.0854C123.692 34.8218 123.545 34.519 123.433 34.1772C123.326 33.8306 123.272 33.4424 123.272 33.0127V29.4971H125.176V33.0127C125.176 33.2617 125.215 33.4863 125.293 33.6865C125.372 33.8818 125.481 34.0503 125.623 34.1919C125.765 34.3335 125.936 34.4434 126.136 34.5215C126.341 34.5947 126.568 34.6313 126.817 34.6313H130.252C130.433 34.6021 130.618 34.5654 130.809 34.5215C130.999 34.4727 131.172 34.3921 131.329 34.2798C131.485 34.1675 131.614 34.0112 131.717 33.811C131.819 33.6108 131.871 33.3447 131.871 33.0127V29.4971H133.775V33.0127Z" fill="url(#paint1_linear_10_2)"/>
<defs>
<linearGradient id="paint0_linear_10_2" x1="9" y1="-1.57673e-08" x2="32.5" y2="55.5" gradientUnits="userSpaceOnUse">
<stop stop-color="#4A068D"/>
<stop offset="1" stop-color="#44A3FB"/>
</linearGradient>
<linearGradient id="paint1_linear_10_2" x1="74.5" y1="1.30917e-06" x2="122" y2="82" gradientUnits="userSpaceOnUse">
<stop stop-color="#470885"/>
<stop offset="0.808741" stop-color="#44A3FB"/>
</linearGradient>
</defs>
</svg>
