<svg width="156" height="50" viewBox="0 0 156 50" fill="none" xmlns="http://www.w3.org/2000/svg">
<path d="M42.6792 7.32384C39.183 3.82714 34.7285 1.44571 29.8788 0.480712C25.0292 -0.484288 20.0023 0.0105324 15.4339 1.90259C10.8655 3.79464 6.9608 6.99902 4.21357 11.1103C1.46634 15.2216 0 20.0553 0 25C0 29.9447 1.46634 34.7784 4.21357 38.8897C6.9608 43.001 10.8655 46.2054 15.4339 48.0974C20.0023 49.9895 25.0292 50.4843 29.8788 49.5193C34.7285 48.5543 39.183 46.1729 42.6792 42.6762C47.3667 37.9879 50 31.6297 50 25C50 18.3704 47.3667 12.0121 42.6792 7.32384ZM6.52009 16.5397C7.77982 13.7456 9.64643 11.2673 11.9843 9.28518C14.3221 7.30304 17.0722 5.86678 20.0347 5.08098C22.9973 4.29518 26.0978 4.17955 29.1106 4.7425C32.1235 5.30545 34.9729 6.53277 37.452 8.33527C31.3155 7.75571 23.6338 10.8921 17.4065 17.1079C15.0563 19.4544 13.0651 22.1348 11.4974 25.0625C9.36518 22.5257 7.68188 19.6433 6.52009 16.5397ZM20.3042 45.5397C15.5592 44.2684 11.4229 41.347 8.6383 37.3001C5.85366 33.2533 4.60304 28.3463 5.11107 23.4602C7.69054 29.0625 14.202 34.1534 22.7474 36.4262C25.9376 37.2915 29.2393 37.6746 32.5429 37.5625C31.4201 40.6682 29.7795 43.5614 27.6905 46.1193C25.2123 46.37 22.7091 46.1659 20.3042 45.5171V45.5397ZM35.8611 21.7784C35.0187 18.5738 33.7092 15.5107 31.9746 12.6875C35.2238 12.1091 38.5474 12.0861 41.8042 12.6193C43.262 14.6374 44.3366 16.9062 44.9746 19.3125C46.2481 24.0582 45.7875 29.1025 43.6754 33.539C41.5634 37.9755 37.9385 41.5134 33.452 43.5171C36.9974 38.5057 38.1338 30.2897 35.8611 21.7784Z" fill="white"/>
<path d="M72.0236 17H69.8654V14.0781H62.2784V17H60.1202V11.0483C60.1202 10.1795 60.2697 9.37988 60.5685 8.64941C60.8673 7.91895 61.2823 7.29085 61.8136 6.76514C62.3448 6.23942 62.9729 5.82992 63.6979 5.53662C64.4228 5.24333 65.2142 5.09668 66.0719 5.09668H70.9362C71.0856 5.09668 71.2267 5.12435 71.3595 5.17969C71.4923 5.23503 71.6085 5.3125 71.7081 5.41211C71.8077 5.51172 71.8852 5.62793 71.9406 5.76074C71.9959 5.89355 72.0236 6.03467 72.0236 6.18408V17ZM62.2784 11.9199H69.8654V7.25488H66.0719C66.0055 7.25488 65.8644 7.26595 65.6486 7.28809C65.4383 7.30469 65.192 7.35173 64.9098 7.4292C64.6331 7.50667 64.3398 7.62565 64.0299 7.78613C63.72 7.94661 63.435 8.16797 63.1749 8.4502C62.9148 8.73242 62.699 9.08659 62.5275 9.5127C62.3615 9.93327 62.2784 10.4451 62.2784 11.0483V11.9199ZM86.4337 9.09766C86.4337 9.59017 86.3728 10.0301 86.2511 10.4175C86.1294 10.8049 85.9633 11.1479 85.7531 11.4468C85.5483 11.7401 85.3103 11.9919 85.0392 12.2021C84.768 12.4124 84.483 12.5868 84.1842 12.7251C83.8909 12.8579 83.5921 12.9548 83.2877 13.0156C82.9889 13.0765 82.7067 13.1069 82.441 13.1069L86.9484 17H83.6115L79.1124 13.1069H77.5602V10.9487H82.441C82.7122 10.9266 82.9585 10.8713 83.1798 10.7827C83.4067 10.6886 83.6004 10.5641 83.7609 10.4092C83.9269 10.2542 84.0542 10.0688 84.1427 9.85303C84.2312 9.63167 84.2755 9.37988 84.2755 9.09766V7.73633C84.2755 7.61458 84.2589 7.52327 84.2257 7.4624C84.198 7.396 84.1593 7.34896 84.1095 7.32129C84.0652 7.28809 84.0154 7.26872 83.9601 7.26318C83.9103 7.25765 83.8632 7.25488 83.819 7.25488H76.6969V17H74.5387V6.18408C74.5387 6.03467 74.5664 5.89355 74.6217 5.76074C74.677 5.62793 74.7517 5.51172 74.8458 5.41211C74.9454 5.3125 75.0616 5.23503 75.1945 5.17969C75.3273 5.12435 75.4712 5.09668 75.6261 5.09668H83.819C84.3004 5.09668 84.7072 5.18522 85.0392 5.3623C85.3712 5.53385 85.6396 5.75244 85.8444 6.01807C86.0546 6.27816 86.2041 6.56038 86.2926 6.86475C86.3867 7.16911 86.4337 7.4541 86.4337 7.71973V9.09766ZM99.2584 7.25488H94.5021V17H92.3439V7.25488H87.5792V5.09668H99.2584V7.25488ZM112.863 5.09668L107.227 16.5767C107.139 16.7537 107.006 16.8949 106.829 17C106.657 17.1107 106.466 17.166 106.256 17.166C106.051 17.166 105.86 17.1107 105.683 17C105.512 16.8949 105.379 16.7537 105.285 16.5767L99.6569 5.09668H102.072L106.256 13.6714L110.456 5.09668H112.863ZM116.258 17H114.1V5.09668H116.258V17ZM129.714 17H119.869C119.714 17 119.57 16.9723 119.438 16.917C119.305 16.8617 119.189 16.7869 119.089 16.6929C118.995 16.5933 118.92 16.4771 118.865 16.3442C118.81 16.2114 118.782 16.0675 118.782 15.9126V5.09668H120.94V14.8418H129.714V17ZM142.232 17H132.387C132.232 17 132.088 16.9723 131.955 16.917C131.822 16.8617 131.706 16.7869 131.607 16.6929C131.512 16.5933 131.438 16.4771 131.382 16.3442C131.327 16.2114 131.299 16.0675 131.299 15.9126V5.09668H133.458V14.8418H142.232V17ZM153.554 12.1357H146.739V9.96094H153.554V12.1357ZM154.525 17H146.739C146.44 17 146.114 16.9474 145.759 16.8423C145.405 16.7371 145.076 16.5656 144.772 16.3276C144.473 16.0841 144.221 15.7715 144.016 15.3896C143.817 15.0023 143.717 14.5291 143.717 13.9702V6.18408C143.717 6.03467 143.745 5.89355 143.8 5.76074C143.856 5.62793 143.93 5.51172 144.025 5.41211C144.124 5.3125 144.24 5.23503 144.373 5.17969C144.506 5.12435 144.65 5.09668 144.805 5.09668H154.525V7.25488H145.876V13.9702C145.876 14.2524 145.95 14.4683 146.1 14.6177C146.249 14.7671 146.468 14.8418 146.755 14.8418H154.525V17ZM72.09 43.9126C72.09 44.0675 72.0623 44.2114 72.007 44.3442C71.9516 44.4771 71.8741 44.5933 71.7745 44.6929C71.6805 44.7869 71.567 44.8617 71.4342 44.917C71.3014 44.9723 71.1575 45 71.0026 45H63.2164C63.0172 45 62.8014 44.9779 62.569 44.9336C62.3421 44.8838 62.1152 44.8091 61.8883 44.7095C61.667 44.6099 61.4539 44.4826 61.2491 44.3276C61.0444 44.1672 60.8618 43.9762 60.7013 43.7549C60.5463 43.528 60.4218 43.2679 60.3278 42.9746C60.2337 42.6758 60.1866 42.341 60.1866 41.9702V36.1265C60.1866 35.9272 60.2088 35.7142 60.2531 35.4873C60.3029 35.2549 60.3776 35.028 60.4772 34.8066C60.5768 34.5798 60.7068 34.3639 60.8673 34.1592C61.0278 33.9544 61.2187 33.7746 61.4401 33.6196C61.667 33.4591 61.927 33.3319 62.2203 33.2378C62.5136 33.1437 62.8457 33.0967 63.2164 33.0967H71.9904V35.2549H63.2164C62.9342 35.2549 62.7184 35.3296 62.569 35.479C62.4196 35.6284 62.3448 35.8498 62.3448 36.1431V41.9702C62.3448 42.2469 62.4196 42.4627 62.569 42.6177C62.7239 42.7671 62.9397 42.8418 63.2164 42.8418H69.9318V40.1357H64.1876V37.9609H71.0026C71.1575 37.9609 71.3014 37.9914 71.4342 38.0522C71.567 38.1076 71.6805 38.1851 71.7745 38.2847C71.8741 38.3843 71.9516 38.5005 72.007 38.6333C72.0623 38.7606 72.09 38.8989 72.09 39.0483V43.9126ZM86.0187 45H83.8605V42.0781H76.2736V45H74.1154V39.0483C74.1154 38.1795 74.2648 37.3799 74.5636 36.6494C74.8624 35.9189 75.2775 35.2909 75.8087 34.7651C76.34 34.2394 76.9681 33.8299 77.693 33.5366C78.4179 33.2433 79.2093 33.0967 80.067 33.0967H84.9313C85.0807 33.0967 85.2218 33.1243 85.3546 33.1797C85.4874 33.235 85.6036 33.3125 85.7032 33.4121C85.8029 33.5117 85.8803 33.6279 85.9357 33.7607C85.991 33.8936 86.0187 34.0347 86.0187 34.1841V45ZM76.2736 39.9199H83.8605V35.2549H80.067C80.0006 35.2549 79.8595 35.266 79.6437 35.2881C79.4334 35.3047 79.1871 35.3517 78.9049 35.4292C78.6282 35.5067 78.3349 35.6257 78.025 35.7861C77.7151 35.9466 77.4301 36.168 77.17 36.4502C76.91 36.7324 76.6941 37.0866 76.5226 37.5127C76.3566 37.9333 76.2736 38.4451 76.2736 39.0483V39.9199ZM99.4659 45H89.6212C89.4663 45 89.3224 44.9723 89.1896 44.917C89.0568 44.8617 88.9406 44.7869 88.8409 44.6929C88.7469 44.5933 88.6722 44.4771 88.6168 44.3442C88.5615 44.2114 88.5338 44.0675 88.5338 43.9126V33.0967H90.692V42.8418H99.4659V45ZM111.984 45H102.139C101.984 45 101.84 44.9723 101.707 44.917C101.574 44.8617 101.458 44.7869 101.359 44.6929C101.264 44.5933 101.19 44.4771 101.134 44.3442C101.079 44.2114 101.051 44.0675 101.051 43.9126V33.0967H103.21V42.8418H111.984V45ZM123.306 40.1357H116.491V37.9609H123.306V40.1357ZM124.277 45H116.491C116.192 45 115.866 44.9474 115.511 44.8423C115.157 44.7371 114.828 44.5656 114.524 44.3276C114.225 44.0841 113.973 43.7715 113.768 43.3896C113.569 43.0023 113.469 42.5291 113.469 41.9702V34.1841C113.469 34.0347 113.497 33.8936 113.552 33.7607C113.608 33.6279 113.682 33.5117 113.776 33.4121C113.876 33.3125 113.992 33.235 114.125 33.1797C114.258 33.1243 114.402 33.0967 114.557 33.0967H124.277V35.2549H115.628V41.9702C115.628 42.2524 115.702 42.4683 115.852 42.6177C116.001 42.7671 116.22 42.8418 116.507 42.8418H124.277V45ZM138.264 37.0977C138.264 37.5902 138.203 38.0301 138.081 38.4175C137.959 38.8049 137.793 39.1479 137.583 39.4468C137.378 39.7401 137.14 39.9919 136.869 40.2021C136.598 40.4124 136.313 40.5868 136.014 40.7251C135.721 40.8579 135.422 40.9548 135.118 41.0156C134.819 41.0765 134.537 41.1069 134.271 41.1069L138.778 45H135.442L130.943 41.1069H129.39V38.9487H134.271C134.542 38.9266 134.789 38.8713 135.01 38.7827C135.237 38.6886 135.43 38.5641 135.591 38.4092C135.757 38.2542 135.884 38.0688 135.973 37.853C136.061 37.6317 136.106 37.3799 136.106 37.0977V35.7363C136.106 35.6146 136.089 35.5233 136.056 35.4624C136.028 35.396 135.989 35.349 135.94 35.3213C135.895 35.2881 135.845 35.2687 135.79 35.2632C135.74 35.2576 135.693 35.2549 135.649 35.2549H128.527V45H126.369V34.1841C126.369 34.0347 126.396 33.8936 126.452 33.7607C126.507 33.6279 126.582 33.5117 126.676 33.4121C126.776 33.3125 126.892 33.235 127.025 33.1797C127.157 33.1243 127.301 33.0967 127.456 33.0967H135.649C136.13 33.0967 136.537 33.1852 136.869 33.3623C137.201 33.5339 137.47 33.7524 137.674 34.0181C137.885 34.2782 138.034 34.5604 138.123 34.8647C138.217 35.1691 138.264 35.4541 138.264 35.7197V37.0977ZM151.769 37.0811C151.769 37.5736 151.706 38.0135 151.578 38.4009C151.457 38.7882 151.293 39.1313 151.089 39.4302C150.884 39.7235 150.643 39.9753 150.366 40.1855C150.095 40.3958 149.813 40.5701 149.52 40.7085C149.226 40.8413 148.928 40.9382 148.623 40.999C148.324 41.0599 148.042 41.0903 147.776 41.0903H146.905V45H144.73V41.0903H143.867C143.601 41.0903 143.316 41.0599 143.012 40.999C142.713 40.9382 142.414 40.8413 142.115 40.7085C141.822 40.5701 141.54 40.3958 141.269 40.1855C140.998 39.9753 140.757 39.7235 140.547 39.4302C140.342 39.1313 140.176 38.7882 140.048 38.4009C139.927 38.008 139.866 37.568 139.866 37.0811V33.0967H142.024V37.0811C142.024 37.3633 142.068 37.6178 142.157 37.8447C142.245 38.0661 142.37 38.257 142.53 38.4175C142.691 38.578 142.885 38.7025 143.111 38.791C143.344 38.874 143.601 38.9155 143.883 38.9155H147.776C147.981 38.8823 148.192 38.8408 148.407 38.791C148.623 38.7357 148.82 38.6444 148.997 38.5171C149.174 38.3898 149.32 38.2127 149.437 37.9858C149.553 37.759 149.611 37.4574 149.611 37.0811V33.0967H151.769V37.0811Z" fill="white"/>
</svg>
